<?xml version="1.0" encoding="UTF-8" standalone="no"?>
<svg
   xmlns:dc="http://purl.org/dc/elements/1.1/"
   xmlns:cc="http://creativecommons.org/ns#"
   xmlns:rdf="http://www.w3.org/1999/02/22-rdf-syntax-ns#"
   xmlns:svg="http://www.w3.org/2000/svg"
   xmlns="http://www.w3.org/2000/svg"
   xmlns:sodipodi="http://sodipodi.sourceforge.net/DTD/sodipodi-0.dtd"
   xmlns:inkscape="http://www.inkscape.org/namespaces/inkscape"
   version="1.1"
   id="svg2"
   xml:space="preserve"
   width="188"
   height="82"
   viewBox="0 0 188 82"
   sodipodi:docname="ADCSLogo2021.svg"
   inkscape:version="1.0.2 (e86c870879, 2021-01-15)"><metadata
     id="metadata8"><rdf:RDF><cc:Work
         rdf:about=""><dc:format>image/svg+xml</dc:format><dc:type
           rdf:resource="http://purl.org/dc/dcmitype/StillImage" /><dc:title></dc:title></cc:Work></rdf:RDF></metadata><defs
     id="defs6"><rect
       x="118.49878"
       y="44.033598"
       width="52.893166"
       height="31.064452"
       id="rect891" /></defs><sodipodi:namedview
     pagecolor="#ffffff"
     bordercolor="#666666"
     borderopacity="1"
     objecttolerance="10"
     gridtolerance="10"
     guidetolerance="10"
     inkscape:pageopacity="0"
     inkscape:pageshadow="2"
     inkscape:window-width="1920"
     inkscape:window-height="1080"
     id="namedview4"
     showgrid="false"
     inkscape:zoom="2.3056195"
     inkscape:cx="138.26466"
     inkscape:cy="-37.323984"
     inkscape:window-x="0"
     inkscape:window-y="0"
     inkscape:window-maximized="0"
     inkscape:current-layer="g12" /><g
     id="g10"
     inkscape:groupmode="layer"
     inkscape:label="ADCSLogo2021"
     transform="matrix(1.3333333,0,0,1.3333333,0,2.05e-6)"><g
       id="g12"
       transform="translate(0,0.11500816)"><g
         id="g14"
         transform="matrix(2.3031956,0,0,2.3123888,-2.8006259,-73.486291)"
         style="stroke-width:0.433315"
         inkscape:export-xdpi="90"
         inkscape:export-ydpi="90"><path
           d="M 2.234,55.504 V 6.195 H 36.301 L 51.957,21.852 V 55.453 L 39.703,45.934 27.773,55.762 14.355,45.805 Z"
           style="fill:none;stroke:#000000;stroke-width:0.324987;stroke-linecap:butt;stroke-linejoin:miter;stroke-miterlimit:4;stroke-dasharray:none;stroke-opacity:1"
           id="path16" /></g><g
         id="g18"
         transform="matrix(2.3031956,0,0,2.3123888,-2.8006259,-73.486291)"
         style="stroke-width:0.433315"
         inkscape:export-xdpi="90"
         inkscape:export-ydpi="90"><path
           d="M 8.672,44.07 V 13.117 l 25.34,-0.015 11.316,11.828 0.25,20.207 -6.531,-6.567 -11.899,10.188 -12.32,-9.731 z"
           style="fill:none;stroke:#000000;stroke-width:0.324987;stroke-linecap:butt;stroke-linejoin:miter;stroke-miterlimit:4;stroke-dasharray:none;stroke-opacity:1"
           id="path20" /></g><g
         id="g22"
         transform="matrix(2.3031956,0,0,2.3123888,-2.8006259,-73.486291)"
         style="stroke-width:0.59570041;stroke-miterlimit:4;stroke-dasharray:none"
         inkscape:export-xdpi="90"
         inkscape:export-ydpi="90"><path
           d="m 34.012,11.131717 0,14.067283 h 12.930283"
           style="fill:none;stroke:#000000;stroke-width:0.5957;stroke-linecap:butt;stroke-linejoin:miter;stroke-miterlimit:4;stroke-dasharray:none;stroke-opacity:1"
           id="path24"
           sodipodi:nodetypes="ccc" /></g><g
         id="g26"
         transform="matrix(2.3031956,0,0,2.3123888,-2.8006259,-73.486291)"
         style="stroke-width:0.59570041;stroke-miterlimit:4;stroke-dasharray:none"
         inkscape:export-xdpi="90"
         inkscape:export-ydpi="90"><path
           d="M 47.023486,31.242 H 26.227 V 10.693637"
           style="fill:none;stroke:#000000;stroke-width:0.5957;stroke-linecap:butt;stroke-linejoin:miter;stroke-miterlimit:4;stroke-dasharray:none;stroke-opacity:1"
           id="path28"
           sodipodi:nodetypes="ccc" /></g><text
         transform="scale(0.99801021,1.0019938)"
         style="font-variant:normal;font-weight:bold;font-size:65.0995px;font-family:Cabin;-inkscape-font-specification:Cabin-Bold;writing-mode:lr-tb;fill:#000000;fill-opacity:1;fill-rule:nonzero;stroke:none;stroke-width:0.999999"
         id="text58"
         x="134.47099"
         y="-8.8057184"
         inkscape:export-xdpi="90"
         inkscape:export-ydpi="90"><tspan
           x="134.47099"
           y="-8.8057184"
           sodipodi:role="line"
           id="tspan54"
           style="stroke-width:0.999999">A</tspan><tspan
           sodipodi:role="line"
           id="tspan56"
           x="134.47099"
           y="72.568657"
           style="stroke-width:0.999999" /></text><text
         transform="scale(0.99801021,1.0019938)"
         style="font-style:normal;font-variant:normal;font-weight:bold;font-stretch:normal;font-size:65.0995px;font-family:Cabin;-inkscape-font-specification:'Cabin, Bold';font-variant-ligatures:normal;font-variant-caps:normal;font-variant-numeric:normal;font-variant-east-asian:normal;writing-mode:lr-tb;fill:#000000;fill-opacity:1;fill-rule:nonzero;stroke:none;stroke-width:0.999999"
         id="text887"
         x="134.47099"
         y="-8.8057184"
         inkscape:export-xdpi="90"
         inkscape:export-ydpi="90"><tspan
           sodipodi:role="line"
           id="tspan885"
           style="font-style:normal;font-variant:normal;font-weight:bold;font-stretch:normal;font-size:65.0995px;font-family:Cabin;-inkscape-font-specification:'Cabin, Bold';font-variant-ligatures:normal;font-variant-caps:normal;font-variant-numeric:normal;font-variant-east-asian:normal;stroke-width:0.999999"
           x="134.47099"
           y="-8.8057184">ADCS</tspan></text><text
         xml:space="preserve"
         id="text889"
         style="font-family:'Linux Biolinum O';font-size:20.0000129px;line-height:1.25;letter-spacing:0px;word-spacing:0px;-inkscape-font-specification:'Linux Biolinum O, Normal';writing-mode:lr;white-space:pre;shape-inside:url(#rect891);"
         inkscape:export-xdpi="90"
         inkscape:export-ydpi="90" /><text
         style="font-style:normal;font-variant:normal;font-weight:bold;font-stretch:normal;font-size:65.0995px;font-family:Cabin;-inkscape-font-specification:'Cabin, Bold';font-variant-ligatures:normal;font-variant-caps:normal;font-variant-numeric:normal;font-variant-east-asian:normal;writing-mode:lr-tb;fill:#000000;fill-opacity:1;fill-rule:nonzero;stroke:none;stroke-width:0.999999"
         id="text955"
         x="134.28862"
         y="50.042866"
         transform="scale(0.99801021,1.0019938)"
         inkscape:export-xdpi="90"
         inkscape:export-ydpi="90"><tspan
           sodipodi:role="line"
           id="tspan953"
           style="font-style:normal;font-variant:normal;font-weight:bold;font-stretch:normal;font-size:65.0995px;font-family:Cabin;-inkscape-font-specification:'Cabin, Bold';font-variant-ligatures:normal;font-variant-caps:normal;font-variant-numeric:normal;font-variant-east-asian:normal;stroke-width:0.999999"
           x="134.28862"
           y="50.042866">2021</tspan></text><path
         style="fill:#000000;fill-opacity:1;stroke:#000000;stroke-width:1.833;stroke-linecap:round;stroke-linejoin:round;stroke-miterlimit:4;stroke-dasharray:none;stroke-opacity:1"
         d="M 70.209056,64.866439 C 64.136625,60.31139 54.930219,53.430034 49.750381,49.574538 L 40.332486,42.564545 22.230831,57.116104 C 12.274921,65.11946 4.0575894,71.667663 3.9700948,71.667663 c -0.087495,0 -0.159081,-33.674388 -0.159081,-74.8319739 V -77.996285 H 55.730799 107.65058 l 23.83226,24.048946 23.83225,24.048947 v 50.783026 c 0,27.930666 -0.0671,50.783029 -0.14917,50.783029 -0.082,0 -8.30533,-6.357274 -18.27397,-14.127274 -9.96865,-7.770003 -18.30008,-14.194533 -18.51429,-14.276735 -0.21422,-0.0822 -8.57483,6.620096 -18.57914,14.893995 C 89.794212,66.43155 81.528085,73.189233 81.429353,73.174724 81.330621,73.160214 76.281487,69.421486 70.209056,64.866439 Z M 97.982302,37.602078 116.20226,21.937802 126.27929,32.235031 c 5.54237,5.663477 10.21153,10.297232 10.37593,10.297232 0.28703,0 0.21847,-10.341003 -0.22419,-33.8123977 l -0.17207,-9.12398044 h 2.32089 2.32089 V -1.4775246 -2.5509341 h -2.30017 -2.30016 l -0.003,-7.1305057 c -0.002,-3.9217782 -0.0889,-7.6480422 -0.19347,-8.2805872 l -0.1901,-1.150082 h 2.34029 2.34029 v -1.073409 -1.07341 h -2.2504 -2.2504 l -17.14764,-17.994415 -17.14765,-17.994415 -0.087,-3.167086 -0.0871,-3.167085 h -0.90969 -0.909692 v 2.760196 2.760195 H 88.763705 77.722922 v -3.526916 -3.526917 h -0.920065 -0.920065 v 3.526917 3.526916 H 49.047555 22.212319 v 48.6356709 c 0,29.8087371 0.110271,48.5960981 0.284865,48.5334421 0.156676,-0.05622 4.446509,-3.526727 9.532963,-7.712223 5.086456,-4.1855 9.414164,-7.673722 9.61713,-7.751608 0.202967,-0.07789 8.782544,6.545516 19.06573,14.71867 10.283186,8.173154 18.776045,14.870104 18.873017,14.882111 0.09698,0.01202 8.375299,-7.027094 18.396278,-15.642447 z"
         id="path965"
         transform="matrix(0.75000002,0,0,0.75000002,0,-0.1150097)"
         inkscape:export-xdpi="90"
         inkscape:export-ydpi="90" /><path
         style="fill:#000000;fill-opacity:1;stroke:#000000;stroke-width:1.833;stroke-linecap:round;stroke-linejoin:round;stroke-miterlimit:4;stroke-dasharray:none;stroke-opacity:1"
         d="m 77.722922,-29.692859 v -27.141925 h 11.040783 11.040783 v 18.861338 18.861337 h 17.433532 17.43354 l 0.19992,4.37031 c 0.10996,2.403671 0.20044,6.1299351 0.20105,8.2805876 l 0.001,3.9102773 H 106.39829 77.722922 Z"
         id="path967"
         transform="matrix(0.75000002,0,0,0.75000002,0,-0.1150097)"
         inkscape:export-xdpi="90"
         inkscape:export-ydpi="90" /></g></g></svg>
